<svg width="40" height="39" viewBox="0 0 40 39" fill="none" xmlns="http://www.w3.org/2000/svg">
<ellipse cx="19.777" cy="19.4949" rx="19.4245" ry="19.4472" fill="#7AC751"/>
<g clip-path="url(#clip0_2_692)">
<path d="M28.6798 25.1669H27.0611V23.5463C27.0611 23.3314 26.9758 23.1253 26.8241 22.9733C26.6723 22.8213 26.4664 22.736 26.2518 22.736C26.0371 22.736 25.8312 22.8213 25.6795 22.9733C25.5277 23.1253 25.4424 23.3314 25.4424 23.5463V25.1669H23.8237C23.609 25.1669 23.4032 25.2522 23.2514 25.4042C23.0996 25.5562 23.0143 25.7623 23.0143 25.9772C23.0143 26.1921 23.0996 26.3982 23.2514 26.5501C23.4032 26.7021 23.609 26.7875 23.8237 26.7875H25.4424V28.4081C25.4424 28.623 25.5277 28.8291 25.6795 28.981C25.8312 29.133 26.0371 29.2184 26.2518 29.2184C26.4664 29.2184 26.6723 29.133 26.8241 28.981C26.9758 28.8291 27.0611 28.623 27.0611 28.4081V26.7875H28.6798C28.8945 26.7875 29.1003 26.7021 29.2521 26.5501C29.4039 26.3982 29.4892 26.1921 29.4892 25.9772C29.4892 25.7623 29.4039 25.5562 29.2521 25.4042C29.1003 25.2522 28.8945 25.1669 28.6798 25.1669Z" fill="white"/>
<path d="M27.0611 14.633H24.6331C24.6331 13.3435 24.1214 12.1069 23.2108 11.1951C22.3001 10.2834 21.0649 9.77115 19.777 9.77115C18.489 9.77115 17.2539 10.2834 16.3432 11.1951C15.4325 12.1069 14.9208 13.3435 14.9208 14.633H12.4928C11.8488 14.633 11.2312 14.8891 10.7759 15.345C10.3205 15.8008 10.0647 16.4191 10.0647 17.0639V25.1669C10.066 26.241 10.4928 27.2708 11.2514 28.0303C12.0101 28.7898 13.0386 29.2171 14.1115 29.2184H21.3957C21.6103 29.2184 21.8162 29.133 21.968 28.9811C22.1197 28.8291 22.205 28.623 22.205 28.4081C22.205 28.1932 22.1197 27.9871 21.968 27.8351C21.8162 27.6832 21.6103 27.5978 21.3957 27.5978H14.1115C13.4675 27.5978 12.8499 27.3417 12.3946 26.8858C11.9392 26.4299 11.6834 25.8116 11.6834 25.1669V17.0639C11.6834 16.849 11.7687 16.6429 11.9205 16.4909C12.0723 16.3389 12.2781 16.2536 12.4928 16.2536H14.9208V17.8742C14.9208 18.0891 15.0061 18.2952 15.1579 18.4471C15.3097 18.5991 15.5155 18.6845 15.7302 18.6845C15.9448 18.6845 16.1507 18.5991 16.3025 18.4471C16.4543 18.2952 16.5395 18.0891 16.5395 17.8742V16.2536H23.0144V17.8742C23.0144 18.0891 23.0996 18.2952 23.2514 18.4471C23.4032 18.5991 23.6091 18.6845 23.8237 18.6845C24.0384 18.6845 24.2442 18.5991 24.396 18.4471C24.5478 18.2952 24.6331 18.0891 24.6331 17.8742V16.2536H27.0611C27.2758 16.2536 27.4816 16.3389 27.6334 16.4909C27.7852 16.6429 27.8705 16.849 27.8705 17.0639V21.1154C27.8705 21.3303 27.9558 21.5364 28.1075 21.6883C28.2593 21.8403 28.4652 21.9257 28.6798 21.9257C28.8945 21.9257 29.1004 21.8403 29.2521 21.6883C29.4039 21.5364 29.4892 21.3303 29.4892 21.1154V17.0639C29.4892 16.4191 29.2334 15.8008 28.778 15.345C28.3227 14.8891 27.7051 14.633 27.0611 14.633ZM16.5395 14.633C16.5395 13.7733 16.8806 12.9489 17.4878 12.3411C18.0949 11.7332 18.9183 11.3918 19.777 11.3918C20.6356 11.3918 21.459 11.7332 22.0662 12.3411C22.6733 12.9489 23.0144 13.7733 23.0144 14.633H16.5395Z" fill="white"/>
</g>
<defs>
<clipPath id="clip0_2_692">
<rect width="19.4245" height="19.4472" fill="white" transform="translate(10.0647 9.77115)"/>
</clipPath>
</defs>
</svg>
