<svg width="11" height="11" viewBox="0 0 11 11" fill="none" xmlns="http://www.w3.org/2000/svg">
<path d="M5.42249 1.05884C5.42337 1.05934 5.42411 1.05957 5.42444 1.05981V1.06079L5.42639 1.06274L6.71057 3.53931L6.85315 3.8147L7.16077 3.85767L10.0358 4.2561C10.0377 4.25638 10.04 4.25676 10.0416 4.25708L7.97913 6.17114L7.73792 6.3938L7.79651 6.71802L8.28479 9.42505C8.27749 9.42944 8.26859 9.43312 8.26038 9.43384C8.25341 9.43439 8.24524 9.43352 8.23401 9.42798L5.66174 8.14185L5.39319 8.00806L2.55334 9.42798H2.55139C2.54013 9.43366 2.53248 9.43436 2.526 9.43384C2.51762 9.43311 2.50818 9.43005 2.50061 9.42505L2.99084 6.71802L3.04944 6.3938L2.80823 6.17114L0.743774 4.25708C0.745754 4.25666 0.748058 4.25646 0.75061 4.2561H0.751587L3.62561 3.85767L3.93323 3.8147L4.07678 3.53931L5.36096 1.06177C5.36188 1.06004 5.36265 1.05917 5.36292 1.05884C5.36302 1.05875 5.36397 1.05837 5.36487 1.05786C5.36867 1.05585 5.3781 1.05197 5.39221 1.052C5.40695 1.05205 5.41781 1.0562 5.42249 1.05884Z" fill="white" stroke="#7AC751" stroke-width="1.2"/>
</svg>
